#Comment line ignore any data following # character 
#Hierarchical Translation and Rotation (.htr) file 
[Header]	
#Header keywords are followed by a single value 
FileType HTR		#Single word string
DataType HTRS		#Translation followed by rotation and scale data
FileVersion 1		#integer
NumSegments 64		#integer
NumFrames 3		#integer
DataFrameRate 30		#integer, data frame rate in this file
EulerRotationOrder ZYX
CalibrationUnits mm
RotationUnits Degrees
GlobalAxisofGravity Y
BoneLengthAxis Y
ScaleFactor 1.00
[SegmentNames&Hierarchy]
#CHILD	PARENT
Pinger_Root GLOBAL
Pelvis Pinger_Root
L_Hip Pelvis
R_Hip Pelvis
Rear_Leg01 Pelvis
Spine1 Pelvis
L_Leg01 L_Hip
L_Leg02 L_Leg01
L_Leg03 L_Leg02
L_Foot L_Leg03
L_Toe1_01 L_Foot
L_Toe2_01 L_Foot
L_Toe3_01 L_Foot
planeAlignerLeft L_Foot
L_Toe1_02 L_Toe1_01
L_Toe1_03 L_Toe1_02
L_Toe2_02 L_Toe2_01
L_Toe2_03 L_Toe2_02
L_Toe3_02 L_Toe3_01
L_Toe3_03 L_Toe3_02
planeLockWeightLeft planeAlignerLeft
R_Leg01 R_Hip
R_Leg02 R_Leg01
R_Leg03 R_Leg02
R_Foot R_Leg03
planeAlignerRight R_Foot
R_Toe1_01 R_Foot
R_Toe2_01 R_Foot
R_Toe3_01 R_Foot
planeLockWeightRight planeAlignerRight
R_Toe1_02 R_Toe1_01
R_Toe1_03 R_Toe1_02
R_Toe2_02 R_Toe2_01
R_Toe2_03 R_Toe2_02
R_Toe3_02 R_Toe3_01
R_Toe3_03 R_Toe3_02
Rear_Leg02 Rear_Leg01
Rear_Leg03 Rear_Leg02
Rear_Leg04 Rear_Leg03
Rear_Foot Rear_Leg04
planeAlignerCenter Rear_Foot
Rear_Toe1_01 Rear_Foot
Rear_Toe2_01 Rear_Foot
Rear_Toe3_01 Rear_Foot
planeLockWeightCenter planeAlignerCenter
Rear_Toe1_02 Rear_Toe1_01
Rear_Toe1_03 Rear_Toe1_02
Rear_Toe2_02 Rear_Toe2_01
Rear_Toe2_03 Rear_Toe2_02
Rear_Toe3_02 Rear_Toe3_01
Rear_Toe3_03 Rear_Toe3_02
Back_Bone Spine1
Head Spine1
Motor_Bone Back_Bone
Ping_Mechanism Back_Bone
BN_LookIK Head
bottomMouth Head
L_Mouth01 Head
L_mouthFront Head
mouthGun Head
R_Mouth01 Head
R_mouthFront Head
TopMouth Head
weapon_bone Head
[BasePosition]
#SegmentName Tx, Ty, Tz, Rx, Ry, Rz, BoneLength
Pinger_Root 0.000000 0.000000 0.000000 -90.000000 0.000000 0.000000 10.000000 
Pelvis 0.000000 0.000000 0.000000 0.000000 0.000000 0.000000 10.000000 
L_Hip 0.000000 0.000000 0.000000 0.000000 0.000000 0.000000 10.000000 
R_Hip 0.000000 0.000000 0.000000 0.000000 0.000000 0.000000 10.000000 
Rear_Leg01 0.000000 0.000000 0.000000 0.000000 0.000000 0.000000 10.000000 
Spine1 0.000000 0.000000 0.000000 0.000000 0.000000 0.000000 10.000000 
L_Leg01 0.000000 0.000000 0.000000 0.000000 0.000000 0.000000 10.000000 
L_Leg02 0.000000 0.000000 0.000000 0.000000 0.000000 0.000000 10.000000 
L_Leg03 0.000000 0.000000 0.000000 0.000000 0.000000 0.000000 10.000000 
L_Foot 0.000000 0.000000 0.000000 0.000000 0.000000 0.000000 10.000000 
L_Toe1_01 0.000000 0.000000 0.000000 0.000000 0.000000 0.000000 10.000000 
L_Toe2_01 0.000000 0.000000 0.000000 0.000000 0.000000 0.000000 10.000000 
L_Toe3_01 0.000000 0.000000 0.000000 0.000000 0.000000 0.000000 10.000000 
planeAlignerLeft 0.000000 0.000000 0.000000 0.000000 0.000000 0.000000 10.000000 
L_Toe1_02 0.000000 0.000000 0.000000 0.000000 0.000000 0.000000 10.000000 
L_Toe1_03 0.000000 0.000000 0.000000 0.000000 0.000000 0.000000 10.000000 
L_Toe2_02 0.000000 0.000000 0.000000 0.000000 0.000000 0.000000 10.000000 
L_Toe2_03 0.000000 0.000000 0.000000 0.000000 0.000000 0.000000 10.000000 
L_Toe3_02 0.000000 0.000000 0.000000 0.000000 0.000000 0.000000 10.000000 
L_Toe3_03 0.000000 0.000000 0.000000 0.000000 0.000000 0.000000 10.000000 
planeLockWeightLeft 0.000000 0.000000 0.000000 0.000000 0.000000 0.000000 10.000000 
R_Leg01 0.000000 0.000000 0.000000 0.000000 0.000000 0.000000 10.000000 
R_Leg02 0.000000 0.000000 0.000000 0.000000 0.000000 0.000000 10.000000 
R_Leg03 0.000000 0.000000 0.000000 0.000000 0.000000 0.000000 10.000000 
R_Foot 0.000000 0.000000 0.000000 0.000000 0.000000 0.000000 10.000000 
planeAlignerRight 0.000000 0.000000 0.000000 0.000000 0.000000 0.000000 10.000000 
R_Toe1_01 0.000000 0.000000 0.000000 0.000000 0.000000 0.000000 10.000000 
R_Toe2_01 0.000000 0.000000 0.000000 0.000000 0.000000 0.000000 10.000000 
R_Toe3_01 0.000000 0.000000 0.000000 0.000000 0.000000 0.000000 10.000000 
planeLockWeightRight 0.000000 0.000000 0.000000 0.000000 0.000000 0.000000 10.000000 
R_Toe1_02 0.000000 0.000000 0.000000 0.000000 0.000000 0.000000 10.000000 
R_Toe1_03 0.000000 0.000000 0.000000 0.000000 0.000000 0.000000 10.000000 
R_Toe2_02 0.000000 0.000000 0.000000 0.000000 0.000000 0.000000 10.000000 
R_Toe2_03 0.000000 0.000000 0.000000 0.000000 0.000000 0.000000 10.000000 
R_Toe3_02 0.000000 0.000000 0.000000 0.000000 0.000000 0.000000 10.000000 
R_Toe3_03 0.000000 0.000000 0.000000 0.000000 0.000000 0.000000 10.000000 
Rear_Leg02 0.000000 0.000000 0.000000 0.000000 0.000000 0.000000 10.000000 
Rear_Leg03 0.000000 0.000000 0.000000 0.000000 0.000000 0.000000 10.000000 
Rear_Leg04 0.000000 0.000000 0.000000 0.000000 0.000000 0.000000 10.000000 
Rear_Foot 0.000000 0.000000 0.000000 0.000000 0.000000 0.000000 10.000000 
planeAlignerCenter 0.000000 0.000000 0.000000 0.000000 0.000000 0.000000 10.000000 
Rear_Toe1_01 0.000000 0.000000 0.000000 0.000000 0.000000 0.000000 10.000000 
Rear_Toe2_01 0.000000 0.000000 0.000000 0.000000 0.000000 0.000000 10.000000 
Rear_Toe3_01 0.000000 0.000000 0.000000 0.000000 0.000000 0.000000 10.000000 
planeLockWeightCenter 0.000000 0.000000 0.000000 0.000000 0.000000 0.000000 10.000000 
Rear_Toe1_02 0.000000 0.000000 0.000000 0.000000 0.000000 0.000000 10.000000 
Rear_Toe1_03 0.000000 0.000000 0.000000 0.000000 0.000000 0.000000 10.000000 
Rear_Toe2_02 0.000000 0.000000 0.000000 0.000000 0.000000 0.000000 10.000000 
Rear_Toe2_03 0.000000 0.000000 0.000000 0.000000 0.000000 0.000000 10.000000 
Rear_Toe3_02 0.000000 0.000000 0.000000 0.000000 0.000000 0.000000 10.000000 
Rear_Toe3_03 0.000000 0.000000 0.000000 0.000000 0.000000 0.000000 10.000000 
Back_Bone 0.000000 0.000000 0.000000 0.000000 0.000000 0.000000 10.000000 
Head 0.000000 0.000000 0.000000 0.000000 0.000000 0.000000 10.000000 
Motor_Bone 0.000000 0.000000 0.000000 0.000000 0.000000 0.000000 10.000000 
Ping_Mechanism 0.000000 0.000000 0.000000 0.000000 0.000000 0.000000 10.000000 
BN_LookIK 0.000000 0.000000 0.000000 0.000000 0.000000 0.000000 10.000000 
bottomMouth 0.000000 0.000000 0.000000 0.000000 0.000000 0.000000 10.000000 
L_Mouth01 0.000000 0.000000 0.000000 0.000000 0.000000 0.000000 10.000000 
L_mouthFront 0.000000 0.000000 0.000000 0.000000 0.000000 0.000000 10.000000 
mouthGun 0.000000 0.000000 0.000000 0.000000 0.000000 0.000000 10.000000 
R_Mouth01 0.000000 0.000000 0.000000 0.000000 0.000000 0.000000 10.000000 
R_mouthFront 0.000000 0.000000 0.000000 0.000000 0.000000 0.000000 10.000000 
TopMouth 0.000000 0.000000 0.000000 0.000000 0.000000 0.000000 10.000000 
weapon_bone 0.000000 0.000000 0.000000 0.000000 0.000000 0.000000 10.000000 
#Beginning of Data. Separated by tabs
#Fr	Tx	Ty	Tz	Rx	Ry	Rz	SF
[Pinger_Root]
36 0.000000 0.000000 0.000000 -0.000075 -0.000000 -0.000020 0.000000
37 0.000000 0.000000 0.000000 -0.000075 -0.000000 -0.000020 0.000000
38 0.000000 0.000000 0.000000 -0.000075 -0.000000 -0.000020 0.000000
[Pelvis]
36 911.263306 511.208282 4231.038574 -58.694740 -79.351257 51.587200 4358.144531
37 892.189209 532.145874 4217.494141 -62.015938 -79.393288 54.887527 4343.551270
38 865.962158 560.159424 4206.090820 -66.402176 -79.610634 59.225739 4330.689453
[L_Hip]
36 5.766392 125.831482 872.656799 160.158691 -45.484905 122.312202 881.701050
37 5.766392 125.831482 872.656799 160.158691 -45.484905 122.312202 881.701050
38 5.766392 125.831482 872.656799 160.158691 -45.484905 122.312202 881.701050
[R_Hip]
36 5.765438 125.836372 -872.654907 38.087841 49.812687 125.703735 881.699829
37 5.765438 125.836372 -872.654907 38.087841 49.812687 125.703735 881.699829
38 5.765438 125.836372 -872.654907 38.087841 49.812687 125.703735 881.699829
[Rear_Leg01]
36 -192.298416 -925.602966 -0.001907 170.102798 -4.693594 -166.819855 945.367432
37 -192.298416 -925.602966 -0.001907 169.951614 -4.893378 -166.868652 945.367432
38 -192.298416 -925.602966 -0.001907 169.665756 -5.258298 -166.648590 945.367432
[Spine1]
36 290.604584 5.007505 0.000477 -8.186831 16.289385 2.725496 290.647736
37 290.604584 5.007505 0.000477 -5.246866 17.615183 4.575712 290.647736
38 290.604584 5.007505 0.000477 -1.347332 18.856070 7.082921 290.647736
[L_Leg01]
36 761.932007 -0.002384 -0.069261 23.021618 -11.955813 -16.929863 761.932068
37 761.932007 -0.002384 -0.069261 22.650295 -12.460263 -14.063136 761.932068
38 761.932007 -0.002384 -0.069261 22.430470 -12.813853 -10.971936 761.932068
[L_Leg02]
36 1441.140503 -0.000954 -0.000715 -0.415745 0.033424 -97.515114 1441.140503
37 1441.140503 -0.000954 -0.000715 -0.074871 -0.024086 -101.692192 1441.140503
38 1441.140503 -0.000954 -0.000715 0.328746 -0.075461 -106.280701 1441.140503
[L_Leg03]
36 1686.963989 -0.000715 -0.000954 -0.013672 0.002880 113.794205 1686.963989
37 1686.963989 -0.000715 -0.000954 -0.015934 0.003448 114.417358 1686.963989
38 1686.963989 -0.000715 -0.000954 -0.018190 0.004039 115.040443 1686.963989
[L_Foot]
36 3041.570068 -30.715107 11.297464 -8.135605 12.738832 36.943336 3041.746094
37 3041.570068 -30.715107 11.297464 -8.026025 12.756326 38.183487 3041.746094
38 3041.570068 -30.715107 11.297464 -7.844907 12.777596 39.725197 3041.746094
[L_Toe1_01]
36 -188.216690 -224.732346 -21.137953 93.659882 -3.884086 -171.433548 293.899567
37 -188.216690 -224.732346 -21.137953 93.662605 -3.877034 -171.474380 293.899567
38 -188.216690 -224.732346 -21.137953 93.677025 -3.842906 -171.680939 293.899567
[L_Toe2_01]
36 200.746536 -219.926590 148.838394 -90.898529 -22.578573 -53.210136 332.896027
37 200.746536 -219.926590 148.838394 -90.908974 -22.574511 -53.187515 332.896027
38 200.746536 -219.926590 148.838394 -90.989075 -22.580851 -52.984997 332.896027
[L_Toe3_01]
36 188.832520 -219.859131 -191.078659 -101.542595 16.233562 -70.858276 347.140900
37 188.832520 -219.859131 -191.078659 -101.544212 16.245699 -70.842110 347.140900
38 188.832520 -219.859131 -191.078659 -101.533936 16.329851 -70.656494 347.140900
[planeAlignerLeft]
36 0.812531 -811.448792 -0.314951 0.000000 -90.000000 -90.001900 811.449280
37 0.812531 -811.448792 -0.314951 0.000000 -90.000000 -90.001900 811.449280
38 0.812531 -811.448792 -0.314951 0.000000 -90.000000 -90.001900 811.449280
[L_Toe1_02]
36 413.761139 0.000477 0.000000 0.000203 -25.410625 -0.000182 413.761139
37 413.761139 0.000477 0.000000 0.000203 -25.410625 -0.000182 413.761139
38 413.761139 0.000477 0.000000 0.000203 -25.410625 -0.000182 413.761139
[L_Toe1_03]
36 464.317322 0.000358 -0.000089 0.004020 56.048618 0.004020 464.317322
37 464.317322 0.000358 -0.000089 0.004038 56.211208 0.004038 464.317322
38 464.317322 0.000358 -0.000089 0.004057 56.373810 0.004057 464.317322
[L_Toe2_02]
36 342.235809 -0.000477 0.000238 0.001187 -72.575554 0.001187 342.235809
37 342.235809 -0.000477 0.000238 0.001187 -72.585976 0.001187 342.235809
38 342.235809 -0.000477 0.000238 0.001187 -72.721138 0.001187 342.235809
[L_Toe2_03]
36 420.210846 -0.000715 0.000000 0.031723 85.759613 0.031723 420.210846
37 420.210846 -0.000715 0.000000 0.033336 85.964874 0.033336 420.210846
38 420.210846 -0.000715 0.000000 0.035122 86.170242 0.035122 420.210846
[L_Toe3_02]
36 329.270111 0.000954 0.000000 0.001180 -78.249832 0.001180 329.270111
37 329.270111 0.000954 0.000000 0.001180 -78.262863 0.001180 329.270111
38 329.270111 0.000954 0.000000 0.001180 -78.275833 0.001180 329.270111
[L_Toe3_03]
36 439.137451 -0.001907 0.000954 -179.981491 86.748871 -179.977982 439.137451
37 439.137451 -0.001907 0.000954 -179.982483 86.582588 -179.978989 439.137451
38 439.137451 -0.001907 0.000954 -179.983368 86.416023 -179.979874 439.137451
[planeLockWeightLeft]
36 -0.000954 0.000238 -0.000305 -0.011826 -0.004376 0.005620 0.001029
37 -0.000954 0.000238 -0.000305 -0.011826 -0.004376 0.005620 0.001029
38 -0.000954 0.000238 -0.000305 -0.011826 -0.004376 0.005620 0.001029
[R_Leg01]
36 761.455627 -0.001907 -0.000358 127.577103 -30.249819 21.418877 761.455688
37 761.455627 -0.001907 -0.000358 127.807167 -30.351585 21.606380 761.455688
38 761.455627 -0.001907 -0.000358 127.886238 -30.141891 22.351162 761.455688
[R_Leg02]
36 1441.140625 0.000000 -0.000238 -2.385974 -0.792406 -149.254257 1441.140625
37 1441.140625 0.000000 -0.000238 -2.394720 -0.800875 -149.556519 1441.140625
38 1441.140625 0.000000 -0.000238 -2.390105 -0.793021 -149.346512 1441.140625
[R_Leg03]
36 1686.963989 0.000954 0.001431 0.104133 -0.059889 138.108734 1686.963989
37 1686.963989 0.000954 0.001431 0.104960 -0.062293 138.211990 1686.963989
38 1686.963989 0.000954 0.001431 0.104126 -0.059901 138.121994 1686.963989
[R_Foot]
36 3041.560059 -30.531288 -11.204481 -10.882649 -23.885935 62.695107 3041.734131
37 3041.560059 -30.531288 -11.204481 -10.624076 -23.919834 63.058582 3041.734131
38 3041.560059 -30.531288 -11.204481 -10.365665 -23.955231 63.421974 3041.734131
[planeAlignerRight]
36 -0.635147 -812.270569 -0.364304 0.000000 -89.960434 -90.005180 812.270874
37 -0.635147 -812.270569 -0.364304 0.000000 -89.960434 -90.005180 812.270874
38 -0.635147 -812.270569 -0.364304 0.000000 -89.960434 -90.005180 812.270874
[R_Toe1_01]
36 -188.383347 -224.864899 21.052242 77.083786 8.626269 -171.213776 294.101532
37 -188.383347 -224.864899 21.052242 76.956558 8.219810 -172.117752 294.101532
38 -188.383347 -224.864899 21.052242 76.835922 7.811416 -173.019928 294.101532
[R_Toe2_01]
36 200.637817 -220.002121 -148.787384 -95.874115 44.040649 -59.824390 332.857574
37 200.637817 -220.002121 -148.787384 -95.496353 43.767143 -59.331047 332.857574
38 200.637817 -220.002121 -148.787384 -94.993996 43.284851 -58.744370 332.857574
[R_Toe3_01]
36 188.606735 -220.092957 191.126343 -76.495293 -3.306308 -66.276909 347.192566
37 188.606735 -220.092957 191.126343 -76.389374 -3.558068 -66.021378 347.192566
38 188.606735 -220.092957 191.126343 -76.284554 -3.810302 -65.766243 347.192566
[planeLockWeightRight]
36 -0.000477 0.000000 0.000000 -0.011823 -0.004379 -0.000027 0.000477
37 -0.000477 0.000000 0.000000 -0.011823 -0.004379 -0.000027 0.000477
38 -0.000477 0.000000 0.000000 -0.011823 -0.004379 -0.000027 0.000477
[R_Toe1_02]
36 413.762085 0.000477 -0.000119 0.001386 -25.662926 0.001386 413.762085
37 413.762085 0.000477 -0.000119 0.001385 -25.822697 0.001385 413.762085
38 413.762085 0.000477 -0.000119 0.001384 -25.982473 0.001384 413.762085
[R_Toe1_03]
36 464.317810 0.000000 0.001088 0.003143 46.150993 0.003143 464.317810
37 464.317810 0.000000 0.001088 0.003366 49.189713 0.003366 464.317810
38 464.317810 0.000000 0.001088 0.003653 52.504402 0.003653 464.317810
[R_Toe2_02]
36 342.234741 -0.000954 0.000238 0.001192 -69.607391 0.001192 342.234741
37 342.234741 -0.000954 0.000238 0.001193 -69.422997 0.001193 342.234741
38 342.234741 -0.000954 0.000238 0.001193 -69.238609 0.001193 342.234741
[R_Toe2_03]
36 420.210846 0.000715 -0.000268 0.011859 78.641052 0.011859 420.210846
37 420.210846 0.000715 -0.000268 0.011640 78.426888 0.011640 420.210846
38 420.210846 0.000715 -0.000268 0.011187 77.956078 0.011187 420.210846
[R_Toe3_02]
36 329.270355 -0.000477 -0.000954 0.001176 -82.971916 0.001176 329.270355
37 329.270355 -0.000477 -0.000954 0.001176 -82.802879 0.001176 329.270355
38 329.270355 -0.000477 -0.000954 0.001176 -82.633720 0.001176 329.270355
[R_Toe3_03]
36 439.137939 0.000238 0.001431 -179.998978 66.389923 -179.995407 439.137939
37 439.137939 0.000238 0.001431 -179.998901 67.064949 -179.995316 439.137939
38 439.137939 0.000238 0.001431 -179.998764 68.028831 -179.995193 439.137939
[Rear_Leg02]
36 1162.777710 -0.029802 0.005960 1.336552 -2.665109 -138.554794 1162.777710
37 1162.777710 -0.029802 0.005960 1.325812 -2.668285 -138.329605 1162.777710
38 1162.777710 -0.029802 0.005960 1.315058 -2.671418 -138.104401 1162.777710
[Rear_Leg03]
36 607.192505 -0.013351 -0.073195 0.010437 -0.005218 69.483017 607.192505
37 607.192505 -0.013351 -0.073195 0.010438 -0.005215 69.444901 607.192505
38 607.192505 -0.013351 -0.073195 0.010440 -0.005211 69.406784 607.192505
[Rear_Leg04]
36 995.874512 -0.020504 -0.011921 -0.040536 -0.018051 69.352646 995.874573
37 995.874512 -0.020504 -0.011921 -0.040511 -0.018108 69.193451 995.874573
38 995.874512 -0.020504 -0.011921 -0.040485 -0.018164 69.034241 995.874573
[Rear_Foot]
36 3096.176270 -0.067472 -0.041425 -170.110199 74.612854 17.216127 3096.176270
37 3096.176270 -0.067472 -0.041425 -170.031464 74.769783 17.583378 3096.176270
38 3096.176270 -0.067472 -0.041425 -169.855194 75.125237 18.228596 3096.176270
[planeAlignerCenter]
36 0.350077 0.966311 -838.790894 0.000009 0.000003 -179.999985 838.791565
37 0.350077 0.966311 -838.790894 0.000009 0.000003 -179.999985 838.791565
38 0.350077 0.966311 -838.790894 0.000009 0.000003 -179.999985 838.791565
[Rear_Toe1_01]
36 0.653352 83.966492 -371.173737 0.288091 41.914127 90.413170 380.553192
37 0.653352 83.966492 -371.173737 0.288091 41.914127 90.413170 380.553192
38 0.653352 83.966492 -371.173737 0.288091 41.914127 90.413170 380.553192
[Rear_Toe2_01]
36 178.200760 -294.826019 -362.060547 -7.196267 34.406261 -66.271294 499.765686
37 178.200760 -294.826019 -362.060547 -7.196267 34.406261 -66.271294 499.765686
38 178.200760 -294.826019 -362.060547 -7.196267 34.406261 -66.271294 499.765686
[Rear_Toe3_01]
36 -153.359680 -308.780914 -362.060852 3.289418 33.518005 -112.540970 499.952881
37 -153.359680 -308.780914 -362.060852 3.289418 33.518005 -112.540970 499.952881
38 -153.359680 -308.780914 -362.060852 3.289418 33.518005 -112.540970 499.952881
[planeLockWeightCenter]
36 -0.000062 0.000238 0.000000 -0.011814 -0.004373 -0.000015 0.000246
37 -0.000062 0.000238 0.000000 -0.011814 -0.004373 -0.000015 0.000246
38 -0.000062 0.000238 0.000000 -0.011814 -0.004373 -0.000015 0.000246
[Rear_Toe1_02]
36 379.707825 0.194073 0.000477 -0.000242 -31.676744 0.006934 379.707855
37 379.707825 0.194073 0.000477 -0.000242 -31.676744 0.006934 379.707855
38 379.707825 0.194073 0.000477 -0.000242 -31.676744 0.006934 379.707855
[Rear_Toe1_03]
36 500.129700 0.165701 0.000119 -0.000103 51.902481 0.007295 500.129761
37 500.129700 0.165701 0.000119 -0.000103 51.902481 0.007295 500.129761
38 500.129700 0.165701 0.000119 -0.000103 51.902481 0.007295 500.129761
[Rear_Toe2_02]
36 340.494507 0.000238 -0.000954 0.001192 -69.854523 0.001192 340.494507
37 340.494507 0.000238 -0.000954 0.001192 -69.854523 0.001192 340.494507
38 340.494507 0.000238 -0.000954 0.001192 -69.854523 0.001192 340.494507
[Rear_Toe2_03]
36 433.103577 0.000000 0.000238 0.006696 69.810326 0.006696 433.103546
37 433.103577 0.000000 0.000238 0.006696 69.810326 0.006696 433.103546
38 433.103577 0.000000 0.000238 0.006696 69.810326 0.006696 433.103546
[Rear_Toe3_02]
36 340.494141 -0.000358 -0.000477 0.008288 -67.274704 -0.009460 340.494171
37 340.494141 -0.000358 -0.000477 0.008288 -67.274704 -0.009460 340.494171
38 340.494141 -0.000358 -0.000477 0.008288 -67.274704 -0.009460 340.494171
[Rear_Toe3_03]
36 433.103577 0.001431 -0.000238 -0.000972 65.958984 -0.004547 433.103546
37 433.103577 0.001431 -0.000238 -0.000972 65.958984 -0.004547 433.103546
38 433.103577 0.001431 -0.000238 -0.000972 65.958984 -0.004547 433.103546
[Back_Bone]
36 1312.175781 -701.934692 0.000954 0.000023 -0.000007 -85.606667 1488.125488
37 1312.175781 -701.934692 0.000954 0.000023 -0.000007 -85.606667 1488.125488
38 1312.175781 -701.934692 0.000954 0.000023 -0.000007 -85.606667 1488.125488
[Head]
36 1406.159424 809.709290 0.001431 -0.060352 -2.150709 7.782309 1622.625488
37 1406.159424 809.709290 0.001431 -0.178410 -2.212029 8.030124 1622.625488
38 1406.159424 809.709290 0.001431 -0.208934 -2.148725 8.043745 1622.625488
[Motor_Bone]
36 1158.364380 -417.834747 0.000477 -0.000105 0.000046 -105.985291 1231.419434
37 1158.364380 -417.834747 0.000477 -0.000105 0.000046 -105.985291 1231.419434
38 1158.364380 -417.834747 0.000477 -0.000105 0.000046 -105.985291 1231.419434
[Ping_Mechanism]
36 1215.237793 -433.297150 0.000954 0.000103 -0.000053 82.120995 1290.174072
37 1215.237793 -433.297150 0.000954 0.000103 -0.000053 82.120995 1290.174072
38 1215.237793 -433.297150 0.000954 0.000103 -0.000053 82.120995 1290.174072
[BN_LookIK]
36 193.241119 1380.371704 -0.002861 0.000000 89.965736 -31.038179 1393.832153
37 193.241119 1380.371704 -0.002861 0.000000 89.965736 -31.038179 1393.832153
38 193.241119 1380.371704 -0.002861 0.000000 89.965736 -31.038179 1393.832153
[bottomMouth]
36 -435.092926 615.759399 -0.000954 -0.000022 0.000016 73.527184 753.966492
37 -435.092926 615.759399 -0.000954 -0.000022 0.000016 73.527184 753.966492
38 -435.092926 615.759399 -0.000954 -0.000022 0.000016 73.527184 753.966492
[L_Mouth01]
36 554.440979 7.658243 838.222046 150.204178 23.759130 109.605339 1005.027161
37 554.440979 7.658243 838.222046 150.204178 23.759130 109.605339 1005.027161
38 554.440979 7.658243 838.222046 150.204178 23.759130 109.605339 1005.027161
[L_mouthFront]
36 551.629089 934.514771 339.150421 0.000081 2.804060 79.119301 1136.941284
37 551.629089 934.514771 339.150421 0.000081 2.804060 79.119301 1136.941284
38 551.629089 934.514771 339.150421 0.000081 2.804060 79.119301 1136.941284
[mouthGun]
36 55.332661 1627.420898 0.000000 0.000023 0.000009 -11.038128 1628.361328
37 55.332661 1627.420898 0.000000 0.000023 0.000009 -11.038128 1628.361328
38 55.332661 1627.420898 0.000000 0.000023 0.000009 -11.038128 1628.361328
[R_Mouth01]
36 554.442383 7.659197 -838.223938 29.795891 -23.759109 109.605331 1005.029541
37 554.442383 7.659197 -838.223938 29.795891 -23.759109 109.605331 1005.029541
38 554.442383 7.659197 -838.223938 29.795891 -23.759109 109.605331 1005.029541
[R_mouthFront]
36 551.629089 934.514282 -339.151367 0.000029 -2.803930 79.119133 1136.941162
37 551.629089 934.514282 -339.151367 0.000029 -2.803930 79.119133 1136.941162
38 551.629089 934.514282 -339.151367 0.000029 -2.803930 79.119133 1136.941162
[TopMouth]
36 461.269867 -56.106091 -0.008583 -0.000059 -0.000268 92.025169 464.669525
37 461.269867 -56.106091 -0.008583 -0.000059 -0.000268 92.025169 464.669525
38 461.269867 -56.106091 -0.008583 -0.000059 -0.000268 92.025169 464.669525
[weapon_bone]
36 -987.239868 1448.372803 0.001431 0.000000 89.965736 -31.038221 1752.833740
37 -987.239868 1448.372803 0.001431 0.000000 89.965736 -31.038221 1752.833740
38 -987.239868 1448.372803 0.001431 0.000000 89.965736 -31.038221 1752.833740
